<svg width="1028" height="1028" viewBox="0 0 1028 1028" fill="none" xmlns="http://www.w3.org/2000/svg">
<path d="M631.552 531.769C612.703 571.238 623.871 621.941 665.118 648.034L720.131 682.825L837.927 688.114L631.552 531.754V531.769Z" fill="#010101"/>
<path d="M529.823 547.559L609.907 505.966L577.169 234.688L520.944 340.589L529.823 547.559Z" fill="#010101"/>
<path d="M508.624 404.285L511.236 343.416L454.349 234.244L421.259 491.568C466.239 489.458 506.504 453.98 508.624 404.3V404.285Z" fill="#010101"/>
<path d="M529.823 594.656L525.844 687.258L776.095 793.755L709.162 687.793L529.823 594.656Z" fill="#010101"/>
<path d="M488.822 571.1L410.29 521.436L190.073 685.652L315.091 680.99L488.822 571.1Z" fill="#010101"/>
<path d="M374.712 661.012L315.213 691.905L251.062 791.722L493.201 690.896C468.437 654.424 418.325 638.342 374.712 660.996V661.012Z" fill="#010101"/>
</svg>
